<svg width="989" height="64" viewBox="0 0 989 64" fill="none" xmlns="http://www.w3.org/2000/svg">
<path d="M39.89 60.39C40.07 60.63 40.16 60.93 40.16 61.29C40.16 61.89 39.92 62.34 39.44 62.64C39.2 62.88 38.87 63 38.45 63C37.91 63 37.46 62.73 37.1 62.19L23.51 43.29H22.7H3.44V61.29C3.44 61.77 3.26 62.19 2.9 62.55C2.6 62.85 2.21 63 1.73 63C1.25 63 0.86 62.85 0.560001 62.55C0.26 62.19 0.11 61.77 0.11 61.29V3.41999C0.11 2.94 0.26 2.55 0.560001 2.25C0.92 1.95 1.31 1.8 1.73 1.8H22.7C26.36 1.8 29.75 2.73 32.87 4.59C35.99 6.45 38.45 8.97 40.25 12.15C42.11 15.33 43.04 18.78 43.04 22.5C43.04 25.74 42.35 28.8 40.97 31.68C39.59 34.5 37.7 36.9 35.3 38.88C32.9 40.8 30.2 42.09 27.2 42.75L39.89 60.39ZM3.44 40.05H22.7C25.76 40.05 28.58 39.27 31.16 37.71C33.8 36.15 35.87 34.02 37.37 31.32C38.93 28.62 39.71 25.68 39.71 22.5C39.71 19.32 38.93 16.41 37.37 13.77C35.87 11.07 33.8 8.94 31.16 7.38C28.58 5.82 25.76 5.04 22.7 5.04H3.44V40.05ZM77.6689 18.72C81.5089 18.72 85.0489 19.74 88.2889 21.78C91.5889 23.76 94.1989 26.49 96.1189 29.97C98.0389 33.45 98.9989 37.23 98.9989 41.31V42.39C98.9989 42.81 98.8189 43.17 98.4589 43.47C98.1589 43.77 97.7989 43.92 97.3789 43.92H59.5789C59.9389 47.16 60.9589 50.07 62.6389 52.65C64.3789 55.23 66.5689 57.24 69.2089 58.68C71.9089 60.12 74.8189 60.84 77.9389 60.84C80.9389 60.78 84.0289 60.21 87.2089 59.13C90.3889 58.05 93.2989 56.58 95.9389 54.72C96.2389 54.54 96.4789 54.45 96.6589 54.45C97.0789 54.45 97.4389 54.6 97.7389 54.9C98.0389 55.2 98.1889 55.56 98.1889 55.98C98.1889 56.7 97.9189 57.15 97.3789 57.33C94.4989 59.37 91.3489 60.99 87.9289 62.19C84.5089 63.33 81.1789 63.9 77.9389 63.9C73.9189 63.9 70.2589 62.91 66.9589 60.93C63.7189 58.95 61.1389 56.25 59.2189 52.83C57.2989 49.35 56.3389 45.51 56.3389 41.31C56.3389 37.23 57.2689 33.45 59.1289 29.97C61.0489 26.49 63.6289 23.76 66.8689 21.78C70.1689 19.74 73.7689 18.72 77.6689 18.72ZM77.6689 21.78C74.4289 21.78 71.4289 22.65 68.6689 24.39C65.9089 26.07 63.6889 28.38 62.0089 31.32C60.3889 34.26 59.5489 37.47 59.4889 40.95H95.8489C95.7889 37.47 94.9189 34.26 93.2389 31.32C91.6189 28.38 89.4289 26.07 86.6689 24.39C83.9089 22.65 80.9089 21.78 77.6689 21.78ZM154.196 59.94C154.616 59.94 154.976 60.09 155.276 60.39C155.576 60.69 155.726 61.05 155.726 61.47C155.726 61.89 155.576 62.25 155.276 62.55C154.976 62.85 154.616 63 154.196 63H113.786C113.366 63 113.006 62.85 112.706 62.55C112.466 62.25 112.346 61.89 112.346 61.47C112.346 61.05 112.496 60.69 112.796 60.39L149.606 22.68H114.686C114.266 22.68 113.906 22.53 113.606 22.23C113.366 21.93 113.246 21.57 113.246 21.15C113.246 20.73 113.366 20.37 113.606 20.07C113.906 19.77 114.266 19.62 114.686 19.62H153.296C153.776 19.62 154.136 19.77 154.376 20.07C154.676 20.31 154.826 20.67 154.826 21.15C154.826 21.57 154.676 21.93 154.376 22.23L117.566 59.94H154.196ZM211.855 19.62C212.335 19.62 212.725 19.77 213.025 20.07C213.325 20.37 213.475 20.73 213.475 21.15V61.38C213.475 61.8 213.325 62.19 213.025 62.55C212.725 62.85 212.335 63 211.855 63C211.435 63 211.075 62.85 210.775 62.55C210.475 62.25 210.325 61.86 210.325 61.38V51.66C208.465 55.38 205.795 58.35 202.315 60.57C198.835 62.79 195.025 63.9 190.885 63.9C186.925 63.9 183.265 62.91 179.905 60.93C176.545 58.89 173.875 56.13 171.895 52.65C169.975 49.17 169.015 45.39 169.015 41.31C169.015 37.23 169.975 33.45 171.895 29.97C173.875 26.49 176.545 23.76 179.905 21.78C183.265 19.74 186.925 18.72 190.885 18.72C195.025 18.72 198.835 19.83 202.315 22.05C205.795 24.27 208.465 27.24 210.325 30.96V21.15C210.325 20.67 210.475 20.31 210.775 20.07C211.075 19.77 211.435 19.62 211.855 19.62ZM191.245 60.84C194.725 60.84 197.905 59.97 200.785 58.23C203.725 56.49 206.035 54.12 207.715 51.12C209.455 48.12 210.325 44.85 210.325 41.31C210.325 37.77 209.455 34.5 207.715 31.5C206.035 28.5 203.725 26.13 200.785 24.39C197.905 22.65 194.725 21.78 191.245 21.78C187.765 21.78 184.555 22.65 181.615 24.39C178.735 26.13 176.425 28.5 174.685 31.5C173.005 34.5 172.165 37.77 172.165 41.31C172.165 44.85 173.005 48.12 174.685 51.12C176.425 54.12 178.735 56.49 181.615 58.23C184.555 59.97 187.765 60.84 191.245 60.84ZM290.327 63.9C286.547 63.9 282.707 63.27 278.807 62.01C274.907 60.69 271.217 59.04 267.737 57.06C267.197 56.76 266.927 56.28 266.927 55.62C266.927 55.14 267.077 54.75 267.377 54.45C267.737 54.15 268.127 54 268.547 54C268.907 54 269.177 54.06 269.357 54.18C277.217 58.5 284.237 60.66 290.417 60.66C293.237 60.66 296.117 60.24 299.057 59.4C302.057 58.5 304.577 57.06 306.617 55.08C308.657 53.04 309.677 50.46 309.677 47.34C309.677 44.4 308.807 42.12 307.067 40.5C305.327 38.88 303.167 37.74 300.587 37.08C298.007 36.42 294.527 35.79 290.147 35.19C285.407 34.53 281.417 33.69 278.177 32.67C274.997 31.65 272.417 30.06 270.437 27.9C268.457 25.74 267.467 22.86 267.467 19.26C267.467 15.42 268.517 12.12 270.617 9.36C272.777 6.6 275.627 4.5 279.167 3.06C282.707 1.62 286.487 0.899995 290.507 0.899995C294.407 0.899995 298.127 1.56 301.667 2.88C305.267 4.14 308.537 5.79 311.477 7.83C311.957 8.19 312.197 8.67 312.197 9.27C312.197 9.69 312.047 10.08 311.747 10.44C311.447 10.74 311.057 10.89 310.577 10.89C310.217 10.89 309.917 10.8 309.677 10.62C303.557 6.3 297.137 4.14 290.417 4.14C286.817 4.14 283.517 4.77 280.517 6.03C277.517 7.23 275.117 8.97 273.317 11.25C271.577 13.53 270.707 16.14 270.707 19.08C270.707 22.14 271.607 24.51 273.407 26.19C275.207 27.87 277.367 29.07 279.887 29.79C282.467 30.45 285.887 31.08 290.147 31.68C295.067 32.4 299.117 33.27 302.297 34.29C305.537 35.31 308.117 36.84 310.037 38.88C312.017 40.92 313.007 43.68 313.007 47.16C313.007 51.18 311.777 54.45 309.317 56.97C306.917 59.43 303.977 61.2 300.497 62.28C297.077 63.36 293.687 63.9 290.327 63.9ZM368.388 19.62C368.868 19.62 369.258 19.77 369.558 20.07C369.858 20.37 370.008 20.73 370.008 21.15V61.38C370.008 61.8 369.858 62.19 369.558 62.55C369.258 62.85 368.868 63 368.388 63C367.968 63 367.608 62.85 367.308 62.55C367.008 62.25 366.858 61.86 366.858 61.38V51.66C364.998 55.38 362.328 58.35 358.848 60.57C355.368 62.79 351.558 63.9 347.418 63.9C343.458 63.9 339.798 62.91 336.438 60.93C333.078 58.89 330.408 56.13 328.428 52.65C326.508 49.17 325.548 45.39 325.548 41.31C325.548 37.23 326.508 33.45 328.428 29.97C330.408 26.49 333.078 23.76 336.438 21.78C339.798 19.74 343.458 18.72 347.418 18.72C351.558 18.72 355.368 19.83 358.848 22.05C362.328 24.27 364.998 27.24 366.858 30.96V21.15C366.858 20.67 367.008 20.31 367.308 20.07C367.608 19.77 367.968 19.62 368.388 19.62ZM347.778 60.84C351.258 60.84 354.438 59.97 357.318 58.23C360.258 56.49 362.568 54.12 364.248 51.12C365.988 48.12 366.858 44.85 366.858 41.31C366.858 37.77 365.988 34.5 364.248 31.5C362.568 28.5 360.258 26.13 357.318 24.39C354.438 22.65 351.258 21.78 347.778 21.78C344.298 21.78 341.088 22.65 338.148 24.39C335.268 26.13 332.958 28.5 331.218 31.5C329.538 34.5 328.698 37.77 328.698 41.31C328.698 44.85 329.538 48.12 331.218 51.12C332.958 54.12 335.268 56.49 338.148 58.23C341.088 59.97 344.298 60.84 347.778 60.84ZM406.604 18.72C410.564 18.72 414.224 19.74 417.584 21.78C420.944 23.76 423.614 26.49 425.594 29.97C427.574 33.45 428.564 37.23 428.564 41.31C428.564 45.39 427.574 49.17 425.594 52.65C423.614 56.13 420.944 58.89 417.584 60.93C414.224 62.91 410.564 63.9 406.604 63.9C402.464 63.9 398.654 62.79 395.174 60.57C391.694 58.35 389.054 55.38 387.254 51.66V61.38C387.254 61.8 387.104 62.19 386.804 62.55C386.504 62.85 386.114 63 385.634 63C385.214 63 384.854 62.85 384.554 62.55C384.254 62.25 384.104 61.86 384.104 61.38V1.53C384.104 1.11 384.254 0.749995 384.554 0.449995C384.854 0.149996 385.214 -4.29153e-06 385.634 -4.29153e-06C386.054 -4.29153e-06 386.414 0.149996 386.714 0.449995C387.074 0.749995 387.254 1.11 387.254 1.53V30.96C389.054 27.24 391.694 24.27 395.174 22.05C398.654 19.83 402.464 18.72 406.604 18.72ZM406.244 60.84C409.724 60.84 412.904 59.97 415.784 58.23C418.724 56.49 421.064 54.12 422.804 51.12C424.544 48.12 425.414 44.85 425.414 41.31C425.414 37.77 424.544 34.5 422.804 31.5C421.064 28.5 418.724 26.13 415.784 24.39C412.904 22.65 409.724 21.78 406.244 21.78C402.764 21.78 399.554 22.65 396.614 24.39C393.734 26.13 391.424 28.5 389.684 31.5C388.004 34.5 387.164 37.77 387.164 41.31C387.164 44.85 388.004 48.12 389.684 51.12C391.424 54.12 393.734 56.49 396.614 58.23C399.554 59.97 402.764 60.84 406.244 60.84ZM463.09 63.9C459.07 63.9 455.35 62.91 451.93 60.93C448.51 58.89 445.81 56.13 443.83 52.65C441.85 49.17 440.86 45.39 440.86 41.31C440.86 37.23 441.85 33.45 443.83 29.97C445.81 26.49 448.51 23.76 451.93 21.78C455.35 19.74 459.07 18.72 463.09 18.72C467.11 18.72 470.8 19.74 474.16 21.78C477.58 23.76 480.28 26.49 482.26 29.97C484.3 33.45 485.32 37.23 485.32 41.31C485.32 45.39 484.3 49.17 482.26 52.65C480.28 56.13 477.58 58.89 474.16 60.93C470.8 62.91 467.11 63.9 463.09 63.9ZM463.09 60.84C466.57 60.84 469.75 59.97 472.63 58.23C475.57 56.49 477.88 54.12 479.56 51.12C481.3 48.12 482.17 44.85 482.17 41.31C482.17 37.77 481.3 34.5 479.56 31.5C477.88 28.5 475.57 26.13 472.63 24.39C469.75 22.65 466.57 21.78 463.09 21.78C459.61 21.78 456.4 22.65 453.46 24.39C450.58 26.13 448.27 28.5 446.53 31.5C444.85 34.5 444.01 37.77 444.01 41.31C444.01 44.85 444.85 48.12 446.53 51.12C448.27 54.12 450.58 56.49 453.46 58.23C456.4 59.97 459.61 60.84 463.09 60.84ZM519.956 63.9C515.936 63.9 512.216 62.91 508.796 60.93C505.376 58.89 502.676 56.13 500.696 52.65C498.716 49.17 497.726 45.39 497.726 41.31C497.726 37.23 498.716 33.45 500.696 29.97C502.676 26.49 505.376 23.76 508.796 21.78C512.216 19.74 515.936 18.72 519.956 18.72C523.976 18.72 527.666 19.74 531.026 21.78C534.446 23.76 537.146 26.49 539.126 29.97C541.166 33.45 542.186 37.23 542.186 41.31C542.186 45.39 541.166 49.17 539.126 52.65C537.146 56.13 534.446 58.89 531.026 60.93C527.666 62.91 523.976 63.9 519.956 63.9ZM519.956 60.84C523.436 60.84 526.616 59.97 529.496 58.23C532.436 56.49 534.746 54.12 536.426 51.12C538.166 48.12 539.036 44.85 539.036 41.31C539.036 37.77 538.166 34.5 536.426 31.5C534.746 28.5 532.436 26.13 529.496 24.39C526.616 22.65 523.436 21.78 519.956 21.78C516.476 21.78 513.266 22.65 510.326 24.39C507.446 26.13 505.136 28.5 503.396 31.5C501.716 34.5 500.876 37.77 500.876 41.31C500.876 44.85 501.716 48.12 503.396 51.12C505.136 54.12 507.446 56.49 510.326 58.23C513.266 59.97 516.476 60.84 519.956 60.84ZM575.561 18.72C576.041 18.72 576.431 18.87 576.731 19.17C577.031 19.47 577.181 19.86 577.181 20.34C577.181 20.76 577.031 21.12 576.731 21.42C576.491 21.66 576.161 21.81 575.741 21.87C572.621 22.05 569.741 22.98 567.101 24.66C564.521 26.34 562.451 28.59 560.891 31.41C559.391 34.17 558.641 37.2 558.641 40.5V61.47C558.641 61.89 558.491 62.28 558.191 62.64C557.891 62.94 557.501 63.09 557.021 63.09C556.601 63.09 556.241 62.94 555.941 62.64C555.641 62.34 555.491 61.95 555.491 61.47V21.06C555.491 20.58 555.641 20.22 555.941 19.98C556.241 19.68 556.601 19.53 557.021 19.53C557.501 19.53 557.891 19.68 558.191 19.98C558.491 20.28 558.641 20.64 558.641 21.06V29.79C560.261 26.61 562.601 24 565.661 21.96C568.721 19.92 572.021 18.84 575.561 18.72ZM593.148 12.69C592.548 12.69 592.008 12.48 591.528 12.06C591.108 11.58 590.898 11.04 590.898 10.44C590.898 9.78 591.108 9.24 591.528 8.81999C592.008 8.4 592.548 8.19 593.148 8.19C593.748 8.19 594.258 8.43 594.678 8.91C595.098 9.33 595.308 9.84 595.308 10.44C595.308 11.04 595.098 11.58 594.678 12.06C594.258 12.48 593.748 12.69 593.148 12.69ZM593.148 63C592.728 63 592.338 62.85 591.978 62.55C591.678 62.19 591.528 61.8 591.528 61.38V21.15C591.528 20.73 591.678 20.37 591.978 20.07C592.278 19.77 592.668 19.62 593.148 19.62C593.568 19.62 593.928 19.77 594.228 20.07C594.528 20.37 594.678 20.73 594.678 21.15V61.38C594.678 61.8 594.528 62.19 594.228 62.55C593.928 62.85 593.568 63 593.148 63ZM701.202 60.75C701.322 60.99 701.382 61.2 701.382 61.38C701.382 62.1 701.052 62.61 700.392 62.91C700.212 62.97 699.972 63 699.672 63C698.952 63 698.442 62.67 698.142 62.01L690.942 45.72H656.832L649.632 62.01C649.332 62.67 648.822 63 648.102 63C647.502 63 647.022 62.76 646.662 62.28C646.362 61.74 646.332 61.23 646.572 60.75L672.312 2.61C672.672 1.95 673.212 1.62 673.932 1.62C674.652 1.62 675.162 1.95 675.462 2.61L701.202 60.75ZM689.502 42.39L673.932 7.29L658.272 42.39H689.502ZM772.665 18.72C776.385 18.72 779.835 19.65 783.015 21.51C786.195 23.37 788.685 25.89 790.485 29.07C792.345 32.25 793.275 35.73 793.275 39.51V61.38C793.275 61.8 793.125 62.19 792.825 62.55C792.525 62.85 792.135 63 791.655 63C791.235 63 790.875 62.85 790.575 62.55C790.275 62.25 790.125 61.86 790.125 61.38V39.96C790.125 36.66 789.315 33.63 787.695 30.87C786.135 28.05 783.975 25.83 781.215 24.21C778.515 22.59 775.545 21.78 772.305 21.78C769.125 21.78 766.155 22.59 763.395 24.21C760.695 25.83 758.535 28.05 756.915 30.87C755.355 33.63 754.575 36.66 754.575 39.96V61.38C754.575 61.8 754.425 62.19 754.125 62.55C753.825 62.85 753.465 63 753.045 63C752.625 63 752.235 62.85 751.875 62.55C751.575 62.19 751.425 61.8 751.425 61.38V39.96C751.425 36.66 750.615 33.63 748.995 30.87C747.435 28.05 745.305 25.83 742.605 24.21C739.905 22.59 736.935 21.78 733.695 21.78C730.455 21.78 727.485 22.59 724.785 24.21C722.085 25.83 719.925 28.05 718.305 30.87C716.745 33.63 715.965 36.66 715.965 39.96V61.38C715.965 61.8 715.815 62.19 715.515 62.55C715.215 62.85 714.825 63 714.345 63C713.925 63 713.565 62.85 713.265 62.55C712.965 62.25 712.815 61.86 712.815 61.38V21.15C712.815 20.67 712.965 20.31 713.265 20.07C713.565 19.77 713.925 19.62 714.345 19.62C714.825 19.62 715.215 19.77 715.515 20.07C715.815 20.37 715.965 20.73 715.965 21.15V29.97C717.645 26.61 720.105 23.91 723.345 21.87C726.645 19.77 730.245 18.72 734.145 18.72C738.465 18.72 742.365 19.98 745.845 22.5C749.325 24.96 751.785 28.17 753.225 32.13C754.725 28.17 757.245 24.96 760.785 22.5C764.325 19.98 768.285 18.72 772.665 18.72ZM808.915 63C808.495 63 808.135 62.85 807.835 62.55C807.535 62.25 807.385 61.86 807.385 61.38V1.53C807.385 1.11 807.535 0.749995 807.835 0.449995C808.135 0.149996 808.495 -4.29153e-06 808.915 -4.29153e-06C809.335 -4.29153e-06 809.695 0.149996 809.995 0.449995C810.355 0.749995 810.535 1.11 810.535 1.53V61.38C810.535 61.8 810.385 62.19 810.085 62.55C809.785 62.85 809.395 63 808.915 63ZM845.13 18.72C848.97 18.72 852.51 19.74 855.75 21.78C859.05 23.76 861.66 26.49 863.58 29.97C865.5 33.45 866.46 37.23 866.46 41.31V42.39C866.46 42.81 866.28 43.17 865.92 43.47C865.62 43.77 865.26 43.92 864.84 43.92H827.04C827.4 47.16 828.42 50.07 830.1 52.65C831.84 55.23 834.03 57.24 836.67 58.68C839.37 60.12 842.28 60.84 845.4 60.84C848.4 60.78 851.49 60.21 854.67 59.13C857.85 58.05 860.76 56.58 863.4 54.72C863.7 54.54 863.94 54.45 864.12 54.45C864.54 54.45 864.9 54.6 865.2 54.9C865.5 55.2 865.65 55.56 865.65 55.98C865.65 56.7 865.38 57.15 864.84 57.33C861.96 59.37 858.81 60.99 855.39 62.19C851.97 63.33 848.64 63.9 845.4 63.9C841.38 63.9 837.72 62.91 834.42 60.93C831.18 58.95 828.6 56.25 826.68 52.83C824.76 49.35 823.8 45.51 823.8 41.31C823.8 37.23 824.73 33.45 826.59 29.97C828.51 26.49 831.09 23.76 834.33 21.78C837.63 19.74 841.23 18.72 845.13 18.72ZM845.13 21.78C841.89 21.78 838.89 22.65 836.13 24.39C833.37 26.07 831.15 28.38 829.47 31.32C827.85 34.26 827.01 37.47 826.95 40.95H863.31C863.25 37.47 862.38 34.26 860.7 31.32C859.08 28.38 856.89 26.07 854.13 24.39C851.37 22.65 848.37 21.78 845.13 21.78ZM897.627 63.63C894.867 63.63 891.927 63.12 888.807 62.1C885.687 61.02 882.777 59.67 880.077 58.05C879.837 57.93 879.627 57.75 879.447 57.51C879.327 57.27 879.267 57.03 879.267 56.79C879.267 56.25 879.507 55.83 879.987 55.53C880.467 55.23 880.947 55.2 881.427 55.44C887.607 58.86 893.007 60.57 897.627 60.57C899.667 60.57 901.737 60.24 903.837 59.58C905.937 58.86 907.677 57.87 909.057 56.61C910.437 55.29 911.127 53.73 911.127 51.93C911.127 49.77 910.557 48.09 909.417 46.89C908.277 45.69 906.807 44.79 905.007 44.19C903.267 43.59 900.837 43.02 897.717 42.48C894.057 41.82 891.087 41.07 888.807 40.23C886.587 39.33 884.787 38.04 883.407 36.36C882.027 34.68 881.337 32.4 881.337 29.52C881.337 26.04 882.927 23.31 886.107 21.33C889.347 19.35 893.217 18.36 897.717 18.36C900.417 18.36 903.207 18.93 906.087 20.07C908.967 21.21 911.517 22.74 913.737 24.66C914.217 24.96 914.457 25.38 914.457 25.92C914.457 26.34 914.307 26.7 914.007 27C913.767 27.3 913.437 27.45 913.017 27.45C912.657 27.45 912.387 27.36 912.207 27.18C910.167 25.44 907.857 24.06 905.277 23.04C902.697 21.96 900.177 21.42 897.717 21.42C893.997 21.42 890.877 22.14 888.357 23.58C885.837 25.02 884.577 26.97 884.577 29.43C884.577 31.71 885.147 33.48 886.287 34.74C887.427 36 888.867 36.96 890.607 37.62C892.347 38.22 894.717 38.79 897.717 39.33C901.557 40.05 904.617 40.83 906.897 41.67C909.237 42.45 911.067 43.65 912.387 45.27C913.767 46.89 914.457 49.08 914.457 51.84C914.457 54.36 913.587 56.52 911.847 58.32C910.107 60.06 907.917 61.38 905.277 62.28C902.697 63.18 900.147 63.63 897.627 63.63ZM949.653 18.72C953.373 18.72 956.793 19.65 959.913 21.51C963.033 23.37 965.493 25.89 967.293 29.07C969.153 32.25 970.083 35.73 970.083 39.51V61.38C970.083 61.8 969.933 62.19 969.633 62.55C969.333 62.85 968.973 63 968.553 63C968.133 63 967.743 62.85 967.383 62.55C967.083 62.19 966.933 61.8 966.933 61.38V39.96C966.933 36.66 966.123 33.63 964.503 30.87C962.943 28.05 960.813 25.83 958.113 24.21C955.413 22.59 952.443 21.78 949.203 21.78C945.963 21.78 942.993 22.59 940.293 24.21C937.593 25.83 935.433 28.05 933.813 30.87C932.253 33.63 931.473 36.66 931.473 39.96V61.38C931.473 61.8 931.323 62.19 931.023 62.55C930.723 62.85 930.333 63 929.853 63C929.433 63 929.073 62.85 928.773 62.55C928.473 62.25 928.323 61.86 928.323 61.38V1.53C928.323 1.11 928.473 0.749995 928.773 0.449995C929.073 0.149996 929.433 -4.29153e-06 929.853 -4.29153e-06C930.273 -4.29153e-06 930.633 0.149996 930.933 0.449995C931.293 0.749995 931.473 1.11 931.473 1.53V29.97C933.153 26.61 935.613 23.91 938.853 21.87C942.153 19.77 945.753 18.72 949.653 18.72ZM986.019 12.69C985.419 12.69 984.879 12.48 984.399 12.06C983.979 11.58 983.769 11.04 983.769 10.44C983.769 9.78 983.979 9.24 984.399 8.81999C984.879 8.4 985.419 8.19 986.019 8.19C986.619 8.19 987.129 8.43 987.549 8.91C987.969 9.33 988.179 9.84 988.179 10.44C988.179 11.04 987.969 11.58 987.549 12.06C987.129 12.48 986.619 12.69 986.019 12.69ZM986.019 63C985.599 63 985.209 62.85 984.849 62.55C984.549 62.19 984.399 61.8 984.399 61.38V21.15C984.399 20.73 984.549 20.37 984.849 20.07C985.149 19.77 985.539 19.62 986.019 19.62C986.439 19.62 986.799 19.77 987.099 20.07C987.399 20.37 987.549 20.73 987.549 21.15V61.38C987.549 61.8 987.399 62.19 987.099 62.55C986.799 62.85 986.439 63 986.019 63Z" fill="url(#paint0_linear_1882_3)"/>
<defs>
<linearGradient id="paint0_linear_1882_3" x1="-7" y1="28" x2="995" y2="28" gradientUnits="userSpaceOnUse">
<stop stop-color="#0C58E5"/>
<stop offset="1" stop-color="#EF0D5C"/>
</linearGradient>
</defs>
</svg>
